<svg xmlns="http://www.w3.org/2000/svg" xmlns:xlink="http://www.w3.org/1999/xlink" viewBox="0,0,256,256" width="100px" height="100px" fill-rule="nonzero"><g transform="translate(38.4,38.4) scale(0.7,0.7)"><g fill="#000000" fill-rule="nonzero" stroke="none" stroke-width="1" stroke-linecap="butt" stroke-linejoin="miter" stroke-miterlimit="10" stroke-dasharray="" stroke-dashoffset="0" font-family="none" font-weight="none" font-size="none" text-anchor="none" style="mix-blend-mode: normal"><path d="M128,310.85714c-100.98921,0 -182.85714,-81.86793 -182.85714,-182.85714v0c0,-100.98921 81.86793,-182.85714 182.85714,-182.85714v0c100.98921,0 182.85714,81.86793 182.85714,182.85714v0c0,100.98921 -81.86793,182.85714 -182.85714,182.85714z" id="shape"></path></g><g fill="#ffffff" fill-rule="nonzero" stroke="none" stroke-width="1" stroke-linecap="butt" stroke-linejoin="miter" stroke-miterlimit="10" stroke-dasharray="" stroke-dashoffset="0" font-family="none" font-weight="none" font-size="none" text-anchor="none" style="mix-blend-mode: normal"><g transform="scale(5.12,5.12)"><path d="M35,14h-33c-0.398,0 -0.759,0.236 -0.918,0.603c-0.158,0.365 -0.084,0.791 0.188,1.081l6.314,6.736c0.943,1.004 2.273,1.58 3.649,1.58h21.767c1.654,0 3,1.346 3,3c0,1.654 -1.346,3 -3,3h-15c-0.398,0 -0.759,0.236 -0.918,0.603c-0.158,0.365 -0.084,0.791 0.188,1.081l6.314,6.736c0.942,1.004 2.272,1.58 3.648,1.58h7.768c7.168,0 13,-5.832 13,-13c0,-7.168 -5.832,-13 -13,-13z"></path></g></g></g></svg>